<mxfile host="app.diagrams.net" agent="Mozilla/5.0 (Windows NT 10.0; Win64; x64) AppleWebKit/537.36 (KHTML, like Gecko) Chrome/137.0.0.0 Safari/537.36" version="26.0.11">
  <diagram name="第 1 页" id="o1_Q9oUr4iFLx2JqIAfV">
    <mxGraphModel dx="1434" dy="820" grid="0" gridSize="10" guides="0" tooltips="1" connect="0" arrows="0" fold="1" page="0" pageScale="1" pageWidth="3300" pageHeight="2339" math="0" shadow="0">
      <root>
        <mxCell id="0" />
        <mxCell id="1" parent="0" />
        <mxCell id="j4iEthHil0KXxNpPAZvp-1" value="外：183.66.200.231/113.204.207.111&amp;nbsp;&amp;nbsp;&lt;div&gt;内：10.63.131.221&lt;/div&gt;" style="sketch=0;aspect=fixed;pointerEvents=1;shadow=0;dashed=0;html=1;strokeColor=none;labelPosition=center;verticalLabelPosition=bottom;verticalAlign=top;align=center;fillColor=#00188D;shape=mxgraph.mscae.enterprise.d" vertex="1" parent="1">
          <mxGeometry x="256" y="496" width="40" height="50" as="geometry" />
        </mxCell>
        <mxCell id="j4iEthHil0KXxNpPAZvp-3" value="&lt;div style=&quot;background-color: rgb(255, 255, 255); line-height: 19px; color: rgb(59, 59, 59);&quot;&gt;&lt;div style=&quot;color: light-dark(rgb(59, 59, 59), rgb(186, 186, 186)); font-family: Consolas, &amp;quot;Courier New&amp;quot;, monospace; white-space-collapse: preserve;&quot;&gt;&lt;font style=&quot;font-size: 12px;&quot;&gt;&lt;br&gt;&lt;/font&gt;&lt;/div&gt;&lt;div style=&quot;&quot;&gt;&lt;font style=&quot;&quot;&gt;&lt;font face=&quot;Consolas, Courier New, monospace&quot; color=&quot;#3b3b3b&quot;&gt;&lt;span style=&quot;white-space-collapse: preserve;&quot;&gt;容器服务&lt;/span&gt;&lt;/font&gt;&lt;/font&gt;&lt;/div&gt;&lt;div style=&quot;color: light-dark(rgb(59, 59, 59), rgb(186, 186, 186)); font-family: Consolas, &amp;quot;Courier New&amp;quot;, monospace; white-space-collapse: preserve;&quot;&gt;&lt;font style=&quot;font-size: 12px;&quot;&gt;10.63.137.17&lt;/font&gt;&lt;/div&gt;&lt;div style=&quot;color: light-dark(rgb(59, 59, 59), rgb(186, 186, 186)); font-family: Consolas, &amp;quot;Courier New&amp;quot;, monospace; white-space-collapse: preserve;&quot;&gt;&lt;font style=&quot;font-size: 12px;&quot;&gt;10.63.137.16&lt;/font&gt;&lt;/div&gt;&lt;div style=&quot;color: light-dark(rgb(59, 59, 59), rgb(186, 186, 186)); font-family: Consolas, &amp;quot;Courier New&amp;quot;, monospace; white-space-collapse: preserve;&quot;&gt;&lt;font style=&quot;font-size: 12px;&quot;&gt;10.63.137.15&lt;/font&gt;&lt;/div&gt;&lt;div style=&quot;color: light-dark(rgb(59, 59, 59), rgb(186, 186, 186)); font-family: Consolas, &amp;quot;Courier New&amp;quot;, monospace; white-space-collapse: preserve;&quot;&gt;&lt;font style=&quot;font-size: 12px;&quot;&gt;10.63.137.28&lt;/font&gt;&lt;/div&gt;&lt;div style=&quot;color: light-dark(rgb(59, 59, 59), rgb(186, 186, 186)); font-family: Consolas, &amp;quot;Courier New&amp;quot;, monospace; white-space-collapse: preserve;&quot;&gt;&lt;font style=&quot;font-size: 12px;&quot;&gt;10.63.137.27&lt;/font&gt;&lt;/div&gt;&lt;div style=&quot;color: light-dark(rgb(59, 59, 59), rgb(186, 186, 186)); font-family: Consolas, &amp;quot;Courier New&amp;quot;, monospace; white-space-collapse: preserve;&quot;&gt;&lt;font style=&quot;font-size: 12px;&quot;&gt;10.63.137.26&lt;/font&gt;&lt;/div&gt;&lt;div style=&quot;color: light-dark(rgb(59, 59, 59), rgb(186, 186, 186)); font-family: Consolas, &amp;quot;Courier New&amp;quot;, monospace; white-space-collapse: preserve;&quot;&gt;&lt;font style=&quot;font-size: 12px;&quot;&gt;10.63.137.25&lt;/font&gt;&lt;/div&gt;&lt;div style=&quot;color: light-dark(rgb(59, 59, 59), rgb(186, 186, 186)); font-family: Consolas, &amp;quot;Courier New&amp;quot;, monospace; white-space-collapse: preserve;&quot;&gt;&lt;font style=&quot;font-size: 12px;&quot;&gt;10.63.137.24&lt;/font&gt;&lt;/div&gt;&lt;/div&gt;" style="sketch=0;aspect=fixed;pointerEvents=1;shadow=0;dashed=0;html=1;strokeColor=none;labelPosition=center;verticalLabelPosition=bottom;verticalAlign=top;align=center;fillColor=#00188D;shape=mxgraph.mscae.enterprise.cluster_server" vertex="1" parent="1">
          <mxGeometry x="680" y="490" width="40" height="50" as="geometry" />
        </mxCell>
        <mxCell id="j4iEthHil0KXxNpPAZvp-4" value="数据库服务器&lt;div&gt;&lt;div style=&quot;color: rgb(59, 59, 59); background-color: rgb(255, 255, 255); font-family: Consolas, &amp;quot;Courier New&amp;quot;, monospace; line-height: 19px; white-space-collapse: preserve;&quot;&gt;&lt;div style=&quot;&quot;&gt;&lt;font style=&quot;font-size: 12px;&quot;&gt;10.63.137.23&lt;/font&gt;&lt;/div&gt;&lt;div style=&quot;&quot;&gt;&lt;font style=&quot;font-size: 12px;&quot;&gt;10.63.137.22&lt;/font&gt;&lt;/div&gt;&lt;div style=&quot;&quot;&gt;&lt;font style=&quot;font-size: 12px;&quot;&gt;10.63.137.21&lt;/font&gt;&lt;/div&gt;&lt;div style=&quot;&quot;&gt;&lt;font style=&quot;font-size: 12px;&quot;&gt;10.63.137.20&lt;/font&gt;&lt;/div&gt;&lt;div style=&quot;&quot;&gt;&lt;font style=&quot;font-size: 12px;&quot;&gt;10.63.137.19&lt;/font&gt;&lt;/div&gt;&lt;div style=&quot;&quot;&gt;&lt;font style=&quot;font-size: 12px;&quot;&gt;10.63.137.18&lt;/font&gt;&lt;/div&gt;&lt;/div&gt;&lt;div&gt;&lt;br&gt;&lt;/div&gt;&lt;/div&gt;" style="sketch=0;aspect=fixed;pointerEvents=1;shadow=0;dashed=0;html=1;strokeColor=none;labelPosition=center;verticalLabelPosition=bottom;verticalAlign=top;align=center;fillColor=#00188D;shape=mxgraph.mscae.enterprise.database_server" vertex="1" parent="1">
          <mxGeometry x="950" y="260" width="38" height="50" as="geometry" />
        </mxCell>
        <mxCell id="j4iEthHil0KXxNpPAZvp-8" style="edgeStyle=orthogonalEdgeStyle;rounded=0;orthogonalLoop=1;jettySize=auto;html=1;exitX=0.5;exitY=0;exitDx=0;exitDy=0;exitPerimeter=0;entryX=0;entryY=0.5;entryDx=0;entryDy=0;entryPerimeter=0;" edge="1" parent="1" source="j4iEthHil0KXxNpPAZvp-3" target="j4iEthHil0KXxNpPAZvp-4">
          <mxGeometry relative="1" as="geometry" />
        </mxCell>
        <mxCell id="j4iEthHil0KXxNpPAZvp-9" value="虚拟IP：10.63.137.223&lt;div&gt;redis: 6379&lt;/div&gt;&lt;div&gt;mysql：3306&lt;/div&gt;&lt;div&gt;ceph：7480&lt;/div&gt;" style="edgeLabel;html=1;align=center;verticalAlign=middle;resizable=0;points=[];" vertex="1" connectable="0" parent="j4iEthHil0KXxNpPAZvp-8">
          <mxGeometry x="-0.1778" y="2" relative="1" as="geometry">
            <mxPoint as="offset" />
          </mxGeometry>
        </mxCell>
        <mxCell id="j4iEthHil0KXxNpPAZvp-10" value="数据库服务器&lt;div&gt;&lt;div style=&quot;color: rgb(59, 59, 59); background-color: rgb(255, 255, 255); font-family: Consolas, &amp;quot;Courier New&amp;quot;, monospace; line-height: 19px; white-space-collapse: preserve;&quot;&gt;&lt;div style=&quot;&quot;&gt;&lt;div style=&quot;line-height: 19px;&quot;&gt;&lt;div style=&quot;&quot;&gt;&lt;font style=&quot;font-size: 12px;&quot;&gt;10.63.137.31&lt;/font&gt;&lt;/div&gt;&lt;div style=&quot;&quot;&gt;&lt;font style=&quot;font-size: 12px;&quot;&gt;10.63.137.30&lt;/font&gt;&lt;/div&gt;&lt;div style=&quot;&quot;&gt;&lt;font style=&quot;font-size: 12px;&quot;&gt;10.63.137.29&lt;/font&gt;&lt;/div&gt;&lt;/div&gt;&lt;/div&gt;&lt;/div&gt;&lt;/div&gt;" style="sketch=0;aspect=fixed;pointerEvents=1;shadow=0;dashed=0;html=1;strokeColor=none;labelPosition=center;verticalLabelPosition=bottom;verticalAlign=top;align=center;fillColor=#00188D;shape=mxgraph.mscae.enterprise.database_server" vertex="1" parent="1">
          <mxGeometry x="950" y="530" width="38" height="50" as="geometry" />
        </mxCell>
        <mxCell id="j4iEthHil0KXxNpPAZvp-14" style="edgeStyle=orthogonalEdgeStyle;rounded=0;orthogonalLoop=1;jettySize=auto;html=1;exitX=0.5;exitY=1;exitDx=0;exitDy=0;exitPerimeter=0;entryX=0;entryY=0.5;entryDx=0;entryDy=0;entryPerimeter=0;" edge="1" parent="1" source="j4iEthHil0KXxNpPAZvp-3" target="j4iEthHil0KXxNpPAZvp-10">
          <mxGeometry relative="1" as="geometry" />
        </mxCell>
        <mxCell id="j4iEthHil0KXxNpPAZvp-15" value="虚拟IP：10.63.137.223&lt;div&gt;pg: 6379&lt;/div&gt;" style="edgeLabel;html=1;align=center;verticalAlign=middle;resizable=0;points=[];" vertex="1" connectable="0" parent="j4iEthHil0KXxNpPAZvp-14">
          <mxGeometry x="-0.0906" y="4" relative="1" as="geometry">
            <mxPoint as="offset" />
          </mxGeometry>
        </mxCell>
        <mxCell id="j4iEthHil0KXxNpPAZvp-17" value="&lt;div style=&quot;background-color: rgb(255, 255, 255); line-height: 19px; color: rgb(59, 59, 59);&quot;&gt;&lt;div style=&quot;&quot;&gt;&lt;div style=&quot;line-height: 19px;&quot;&gt;&lt;div style=&quot;&quot;&gt;&lt;font style=&quot;&quot;&gt;&lt;font face=&quot;Consolas, Courier New, monospace&quot; color=&quot;#3b3b3b&quot;&gt;&lt;span style=&quot;white-space-collapse: preserve;&quot;&gt;数据代理和分发服务器&lt;/span&gt;&lt;/font&gt;&lt;/font&gt;&lt;/div&gt;&lt;div style=&quot;color: light-dark(rgb(59, 59, 59), rgb(186, 186, 186)); font-family: Consolas, &amp;quot;Courier New&amp;quot;, monospace; white-space-collapse: preserve;&quot;&gt;&lt;font style=&quot;font-size: 12px;&quot;&gt;10.63.131.174&lt;/font&gt;&lt;/div&gt;&lt;div style=&quot;color: light-dark(rgb(59, 59, 59), rgb(186, 186, 186)); font-family: Consolas, &amp;quot;Courier New&amp;quot;, monospace; white-space-collapse: preserve;&quot;&gt;&lt;font style=&quot;font-size: 12px;&quot;&gt;10.63.131.175&lt;/font&gt;&lt;/div&gt;&lt;/div&gt;&lt;/div&gt;&lt;/div&gt;" style="sketch=0;aspect=fixed;pointerEvents=1;shadow=0;dashed=0;html=1;strokeColor=none;labelPosition=center;verticalLabelPosition=bottom;verticalAlign=top;align=center;fillColor=#00188D;shape=mxgraph.mscae.enterprise.cluster_server" vertex="1" parent="1">
          <mxGeometry x="510" y="490" width="40" height="50" as="geometry" />
        </mxCell>
        <mxCell id="j4iEthHil0KXxNpPAZvp-19" style="edgeStyle=orthogonalEdgeStyle;rounded=0;orthogonalLoop=1;jettySize=auto;html=1;exitX=1;exitY=0.5;exitDx=0;exitDy=0;exitPerimeter=0;entryX=0;entryY=0.5;entryDx=0;entryDy=0;entryPerimeter=0;" edge="1" parent="1" source="j4iEthHil0KXxNpPAZvp-17" target="j4iEthHil0KXxNpPAZvp-3">
          <mxGeometry relative="1" as="geometry" />
        </mxCell>
        <mxCell id="j4iEthHil0KXxNpPAZvp-21" style="edgeStyle=orthogonalEdgeStyle;rounded=0;orthogonalLoop=1;jettySize=auto;html=1;exitX=1;exitY=0.38;exitDx=0;exitDy=0;exitPerimeter=0;entryX=0;entryY=0.5;entryDx=0;entryDy=0;entryPerimeter=0;" edge="1" parent="1" source="j4iEthHil0KXxNpPAZvp-1" target="j4iEthHil0KXxNpPAZvp-17">
          <mxGeometry relative="1" as="geometry" />
        </mxCell>
        <mxCell id="j4iEthHil0KXxNpPAZvp-24" value="公网：&lt;div&gt;&lt;span style=&quot;font-size: 12px; background-color: rgb(251, 251, 251);&quot;&gt;183.66.200.231&lt;/span&gt;&lt;/div&gt;&lt;div&gt;&lt;span style=&quot;font-size: 12px; background-color: rgb(251, 251, 251);&quot;&gt;113.204.207.111&amp;nbsp;&lt;/span&gt;&lt;/div&gt;" style="edgeLabel;html=1;align=center;verticalAlign=middle;resizable=0;points=[];" vertex="1" connectable="0" parent="j4iEthHil0KXxNpPAZvp-21">
          <mxGeometry x="0.0233" y="-1" relative="1" as="geometry">
            <mxPoint as="offset" />
          </mxGeometry>
        </mxCell>
      </root>
    </mxGraphModel>
  </diagram>
</mxfile>
